<svg xmlns="http://www.w3.org/2000/svg" viewBox="96 91 320 330" width="320" height="330" role="img" aria-label="PoolPilot">
  <g transform="matrix(0.51239619,0,0,0.51239619,45.088159,44.380526)" fill="#0277BD">
    <path d="m 124,579 c 0,0 -1,-53 -1,-53 0,0 -1,-17 -1,-17 0,0 0,-26 0,-26 0,0 -1,-17 -1,-17 0,0 0,-32 0,-32 0,0 -1,-17 -1,-17 0,0 0,-42 0,-42 0,0 0.96,-13 0.96,-13 3.22,-73.34 36.88,-144.43 95.04,-189.99 47.99,-37.59 113.16,-59.3 174,-60.01 0,0 15,-1 15,-1 0,0 28,1 28,1 14.53,0.17 37.56,4.39 52,7.58 82.83,18.29 155.58,72.5 187.55,152.42 8.6,21.48 16.41,53.88 16.45,77 0,0 0,23 0,23 -0.22,18.11 -6.67,45.16 -13.4,62 -7.51,18.78 -15.91,34.41 -29.04,50 -9.32,11.07 -20.54,21.27 -32.56,29.33 -62.58,41.96 -136.4,22.85 -194,-17.91 -9.45,-6.68 -33.34,-24.36 -40,-32.42 0,0 34,1 34,1 0,0 16,0.96 16,0.96 0,0 8,-1 8,-1 0,0 10,0 10,0 13.57,-1.42 27.07,-4.16 40,-8.47 19.24,-6.42 39.03,-17.58 52.91,-32.49 9.19,-9.87 17.86,-23.25 22.39,-36 13.82,-38.85 1.71,-85.79 -25.47,-116 -23,-25.55 -54.48,-40.69 -87.83,-47.4 0,0 -23,-3.56 -23,-3.56 0,0 -9,0 -9,0 0,0 -11,-1 -11,-1 0,0 -8,0.87 -8,0.87 -46.39,3.17 -85.29,15.39 -119,49.09 -9.19,9.19 -15.03,15.8 -21.8,27 -15.26,25.27 -27.06,62.31 -27.2,92 0,0 0,34 0,34 0,0 0.91,10 0.91,10 0,0 2.37,30 2.37,30 0,0 4.72,31 4.72,31 -31.14,10.38 -53.57,21.33 -78,44.09 -8.02,7.47 -15.63,15.43 -22.58,23.91 z" />
    <path fill-opacity="0.8" d="m 131,623 c 2.25,-7.88 10.9,-21.23 15.88,-28 14.14,-19.21 28.23,-33.68 48.12,-47 17.6,-11.78 33.02,-18.68 53,-25.33 46.52,-15.5 97.49,-12.96 144,1.05 44.72,13.47 85.48,37.42 130,51.26 32.22,10.01 53.5,12.41 87,12.02 20.55,-0.24 49.33,-7.76 68,-16.31 0,0 26,-13.69 26,-13.69 -3.84,16.36 -17.85,36.51 -28.85,49 -10.49,11.91 -22.2,21.2 -36.15,28.77 -12.74,6.91 -20.98,10.11 -35,13.6 -47.7,11.87 -101.05,0.18 -146,-17.18 -35.47,-13.7 -71.74,-32.66 -108,-43.05 -22.85,-6.55 -45.26,-11.6 -69,-13.23 0,0 -15,-0.91 -15,-0.91 0,0 -10,0.91 -10,0.91 -34.16,2.34 -59.72,8.78 -90,25.4 z" />
    <path fill-opacity="0.55" d="m 122,695 c 8.58,-19.24 28.8,-41.48 46,-53.34 16.43,-11.33 29.02,-17.8 48,-23.99 46.99,-15.32 97.46,-8.26 143,8.38 56.87,20.78 93.66,46.69 157,51.04 0,0 10,0.91 10,0.91 0,0 4,0 4,0 -6.79,9.46 -18.72,16.11 -29,21.25 -17.91,8.95 -41.88,15.72 -62,15.75 0,0 -19,0 -19,0 -32.1,-0.15 -70.11,-15.39 -100,-26.58 -27.68,-10.35 -56.52,-17.48 -86,-19.51 0,0 -12,-0.9 -12,-0.9 0,0 -9,1.03 -9,1.03 0,0 -9,0 -9,0 -17.49,1.79 -34.56,5.79 -51,12.02 z" />
  </g>
</svg>
